<svg width="36" height="34" viewBox="0 0 36 34" fill="none" xmlns="http://www.w3.org/2000/svg">
<path d="M17.5005 17.9562C16.2148 19.7039 15.0162 21.3423 13.8048 22.9821C13.2448 23.7423 13.0777 23.7845 12.2634 23.3709C8.43009 21.4194 4.59775 19.466 0.76636 17.5106C-0.0822026 17.0737 -0.169344 16.7038 0.399221 15.9261C1.54207 14.3581 2.69348 12.7915 3.85347 11.2264C4.00632 11.0167 4.14918 10.7983 4.32632 10.542C3.05062 9.24289 1.79492 7.96567 0.540648 6.68553C-0.266486 5.86124 -0.17363 5.38647 0.89493 4.93791C4.68775 3.36797 8.48771 1.80967 12.2705 0.210599C12.8919 -0.0515443 13.3177 0.0227296 13.7805 0.51352C14.9776 1.78346 16.209 3.01553 17.5033 4.33353C18.469 3.34467 19.389 2.37911 20.3347 1.44122C22.1918 -0.405438 21.4776 -0.280191 23.919 0.71304C27.3032 2.09803 30.6732 3.51215 34.0489 4.91607C35.2074 5.39812 35.2946 5.83357 34.4074 6.73942C33.1832 7.98606 31.956 9.22978 30.676 10.5259C30.8189 10.7356 30.9432 10.9308 31.0789 11.1085C32.2446 12.7066 33.4103 14.2955 34.576 15.8751C35.1703 16.6848 35.0874 17.0751 34.2174 17.5193C30.3846 19.4738 26.5447 21.4107 22.7218 23.387C22.0576 23.7292 21.6447 23.6142 21.219 23.02C20.0219 21.351 18.7862 19.7024 17.5005 17.9562ZM27.8061 10.5361C24.4118 9.12492 21.1704 7.76906 17.919 6.43941C17.6562 6.35562 17.3732 6.36486 17.1162 6.46563C16.0991 6.84573 15.0976 7.28264 14.0919 7.69915C11.852 8.63122 9.61484 9.5662 7.27486 10.542C7.59629 10.7255 7.81486 10.8609 8.04057 10.9789C10.9862 12.4804 13.9362 13.9702 16.8733 15.4935C17.3148 15.7222 17.659 15.7528 18.1147 15.5154C20.7704 14.1319 23.4447 12.7818 26.1147 11.4201C26.6361 11.1463 27.1575 10.8725 27.8061 10.5361ZM22.2904 21.8796L33.0503 16.3863L29.4218 11.4565L18.6619 16.9426C19.889 18.616 21.0633 20.2121 22.2904 21.8796ZM1.95778 16.3848L12.7191 21.8709L16.3448 16.9426L5.58916 11.4522L1.95778 16.3848ZM32.9017 6.11756C29.3589 4.64519 25.9447 3.22379 22.5247 1.81987C22.4411 1.79594 22.3532 1.79218 22.2679 1.80886C22.1826 1.82554 22.1023 1.86221 22.0333 1.91599C20.9819 2.95436 19.9504 4.01459 18.9147 5.06607C18.9933 5.15491 19.0147 5.20297 19.0504 5.21171C22.4237 6.6166 25.7989 8.01567 29.1761 9.40891C29.2671 9.43731 29.3633 9.44421 29.4574 9.42907C29.5514 9.41393 29.6409 9.37715 29.7189 9.32153C30.7632 8.30208 31.7803 7.2506 32.9017 6.11756ZM2.12206 6.11756C2.77491 6.78165 3.34062 7.36419 3.9149 7.938C4.43775 8.46228 4.90632 9.27929 5.51345 9.40891C6.12059 9.53853 6.86201 8.97783 7.54057 8.69967C10.3763 7.52585 13.2091 6.34329 16.1476 5.11996C15.0505 4.00731 14.0219 2.94563 12.9634 1.91599C12.8477 1.80239 12.5262 1.81258 12.3448 1.88249C11.3705 2.25677 10.4105 2.66601 9.44627 3.0665L2.12206 6.11756Z" fill="#BD9DEA"/>
<path d="M16.7505 31.9445V21.8767C16.7452 21.6595 16.7528 21.4421 16.7733 21.2257C16.8319 20.767 17.1348 20.4757 17.5476 20.5908C17.7004 20.6456 17.8393 20.7346 17.954 20.8513C18.0687 20.968 18.1563 21.1094 18.2105 21.2651C18.3205 21.7471 18.249 22.2729 18.249 22.7797C18.249 25.822 18.249 28.8629 18.249 31.9969C18.509 31.8891 18.7033 31.8251 18.8862 31.7319C22.0633 30.1139 25.2361 28.4842 28.4218 26.8793C28.7975 26.69 28.9218 26.4672 28.9161 26.0521C28.8932 24.5768 28.9161 23.103 28.9046 21.6292C28.9046 21.067 29.0089 20.566 29.6789 20.5704C30.3489 20.5748 30.446 21.0888 30.4446 21.6437C30.4446 23.3345 30.4246 25.0268 30.4446 26.7176C30.4546 27.3351 30.2175 27.6934 29.6846 27.9643C25.7832 29.9391 21.8947 31.9416 17.9876 33.9033C17.8317 33.9686 17.6646 34.0015 17.496 34C17.3275 33.9985 17.1609 33.9626 17.0062 33.8945C13.1005 31.9285 9.21198 29.9245 5.31203 27.9439C4.83918 27.7051 4.56632 27.408 4.57061 26.8385C4.58775 25.0749 4.54918 23.3098 4.60346 21.5476C4.62464 21.3587 4.68694 21.177 4.78579 21.0157C4.88465 20.8544 5.01759 20.7177 5.17489 20.6155C5.66917 20.3607 6.10773 20.8092 6.11345 21.5083C6.1263 23.0302 6.10059 24.5535 6.1363 26.0754C6.1363 26.3244 6.31487 26.6914 6.51487 26.7948C9.80055 28.5046 13.1134 30.1808 16.4176 31.8615C16.526 31.8988 16.6374 31.9266 16.7505 31.9445Z" fill="#BD9DEA"/>
</svg>
