<svg width="36" height="27" viewBox="0 0 36 27" fill="none" xmlns="http://www.w3.org/2000/svg">
<path d="M7.39992 13.6182C7.01072 13.9899 6.61986 14.3599 6.23565 14.7332C5.77826 15.1729 5.32253 15.1928 4.86347 14.7332L0.349426 10.2383C-0.149547 9.74056 -0.0830177 9.28261 0.39267 8.80972C2.83431 6.37728 5.26432 3.93653 7.71095 1.50906C7.93472 1.30738 8.20058 1.15776 8.48935 1.07102C9.53386 0.724237 10.585 0.407322 11.6395 0.0854289C12.4113 -0.145206 12.7888 0.0854289 12.9701 0.847021C13.5356 3.24629 15.2987 4.75951 17.5341 4.74458C19.7312 4.72799 21.4776 3.21808 22.0248 0.860295C22.2028 0.0887474 22.5704 -0.126954 23.3455 0.0854289C23.3721 0.0854289 23.397 0.106999 23.4236 0.113636C25.8603 0.571587 27.8329 1.73638 29.4778 3.63455C31.0064 5.40164 32.7727 6.96797 34.426 8.62721C35.2011 9.40705 35.1961 9.6858 34.4177 10.469C33.076 11.8163 31.7293 13.1603 30.3777 14.5009C29.5909 15.2808 29.3099 15.2924 28.5481 14.5009C28.2454 14.189 28.0325 13.7891 27.7797 13.4307L27.447 13.6414C27.432 13.9235 27.4038 14.2056 27.4038 14.4877C27.4038 18.2044 27.4038 21.9216 27.4038 25.6394C27.4038 26.7826 27.1909 27 26.0732 27C20.3605 27 14.6467 27 8.93177 27C7.849 27 7.62779 26.7793 7.62612 25.6992C7.62612 22.0367 7.62612 18.3742 7.62612 14.7116V13.7244L7.39992 13.6182ZM5.58532 12.9412C5.75165 12.7952 5.95789 12.6243 6.14916 12.4435C6.6814 11.9225 7.17538 11.36 7.74754 10.8871C7.98871 10.688 8.43779 10.527 8.69725 10.6183C8.95672 10.7096 9.15631 11.1161 9.27606 11.423C9.37087 11.6636 9.30766 11.9673 9.30766 12.2427C9.30766 16.2348 9.30766 20.2281 9.30766 24.2224V25.2611H25.679V24.1892C25.679 20.0577 25.664 15.9262 25.7039 11.7964C25.7039 11.3948 25.9551 10.7842 26.2528 10.6565C26.5505 10.5287 27.1227 10.8224 27.4404 11.0829C28.1456 11.6752 28.771 12.3688 29.2949 12.8915L32.7993 9.41535C32.6729 9.27929 32.4933 9.0752 32.3004 8.88273C30.5074 7.08743 28.6645 5.34025 26.9331 3.48356C25.9834 2.4681 24.7709 2.31047 23.6066 1.93051C21.8618 5.12621 20.2518 6.3192 17.6904 6.35239C14.5602 6.39387 12.6009 4.75122 11.43 1.93051C10.1459 2.31047 8.90183 2.55604 7.92218 3.62293C6.24397 5.4481 4.42937 7.14716 2.67464 8.90264C2.4684 9.10839 2.28711 9.33736 2.13741 9.50495L5.58532 12.9412Z" fill="#BD9DEA"/>
</svg>
