<svg width="36" height="29" viewBox="0 0 36 29" fill="none" xmlns="http://www.w3.org/2000/svg">
<path fill-rule="evenodd" clip-rule="evenodd" d="M15.2311 3.45529C7.79273 4.51435 2.01773 10.6925 1.68606 18.2558C1.33273 18.376 1.00606 18.5753 0.736061 18.8421C0.267728 19.3066 0.00439453 19.9341 0.00439453 20.5896C0.00439453 22.0242 0.00439453 24.0962 0.00439453 25.5308C0.00439453 26.1863 0.267728 26.8139 0.736061 27.2783C1.20606 27.7412 1.84106 28.0014 2.50439 28.0014C8.19439 28.0014 26.8144 28.0014 32.5044 28.0014C33.1677 28.0014 33.8027 27.7412 34.2727 27.2783C34.7411 26.8139 35.0044 26.1863 35.0044 25.5308V20.5896C35.0044 19.9341 34.7411 19.3066 34.2727 18.8421C34.0027 18.5753 33.6761 18.376 33.3227 18.2558C32.9911 10.6925 27.2161 4.51435 19.7777 3.45529C19.9227 3.17035 20.0044 2.83929 20.0044 2.47199C20.0044 1.10823 18.8844 0.00140381 17.5044 0.00140381C16.1244 0.00140381 15.0044 1.10823 15.0044 2.47199C15.0044 2.83929 15.0861 3.17035 15.2311 3.45529ZM33.3377 20.5896V25.5308C33.3377 25.7499 33.2494 25.9591 33.0944 26.1139C32.9377 26.2671 32.7261 26.3543 32.5044 26.3543H2.50439C2.28273 26.3543 2.07106 26.2671 1.91439 26.1139C1.75939 25.9591 1.67106 25.7499 1.67106 25.5308V20.5896C1.67106 20.3706 1.75939 20.1614 1.91439 20.0066C2.07106 19.8534 2.28273 19.7661 2.50439 19.7661H32.5044C32.7261 19.7661 32.9377 19.8534 33.0944 20.0066C33.2494 20.1614 33.3377 20.3706 33.3377 20.5896ZM31.6461 18.1191C31.2144 10.7748 25.0427 4.94258 17.5044 4.94258C9.96606 4.94258 3.79439 10.7748 3.36273 18.1191H31.6461ZM17.5044 1.64846C17.9644 1.64846 18.3377 2.0174 18.3377 2.47199C18.3377 2.92658 17.9644 3.29552 17.5044 3.29552C17.0444 3.29552 16.6711 2.92658 16.6711 2.47199C16.6711 2.0174 17.0444 1.64846 17.5044 1.64846Z" fill="#BD9DEA"/>
</svg>
