<svg width="36" height="34" viewBox="0 0 36 34" fill="none" xmlns="http://www.w3.org/2000/svg">
<path d="M32.8169 12.1047H22.6086V10.6806H23.3377C23.5311 10.6806 23.7166 10.6056 23.8533 10.4721C23.9901 10.3385 24.0669 10.1574 24.0669 9.96859C24.0669 9.77974 23.9901 9.59863 23.8533 9.4651C23.7166 9.33156 23.5311 9.25655 23.3377 9.25655H20.4211C20.2277 9.25655 20.0422 9.33156 19.9055 9.4651C19.7687 9.59863 19.6919 9.77974 19.6919 9.96859C19.6919 10.1574 19.7687 10.3385 19.9055 10.4721C20.0422 10.6056 20.2277 10.6806 20.4211 10.6806H21.1502V12.1047H18.2336V3.73822C18.2336 2.31414 19.1797 1.49529 20.4539 1.51309C20.888 1.52672 21.3096 1.65907 21.6705 1.8951C22.0314 2.13112 22.3173 2.46133 22.4955 2.84817C22.6268 3.11875 22.6965 3.4139 22.6997 3.7133C22.7028 3.86051 22.7637 4.00093 22.8699 4.10544C22.9761 4.20996 23.1194 4.27056 23.2701 4.27468C23.4209 4.2788 23.5674 4.22612 23.6795 4.12757C23.7915 4.02902 23.8604 3.89215 23.8718 3.74534C23.8718 3.65278 23.8846 3.56733 23.8846 3.46408C23.8885 2.55066 23.5212 1.67302 22.8634 1.02363C22.2056 0.374239 21.3109 0.00611938 20.3755 0C18.9627 0 16.7752 1.28702 16.7752 3.20419V12.1047H13.8586V10.6806H14.5877C14.7811 10.6806 14.9666 10.6056 15.1033 10.4721C15.2401 10.3385 15.3169 10.1574 15.3169 9.96859C15.3169 9.77974 15.2401 9.59863 15.1033 9.4651C14.9666 9.33156 14.7811 9.25655 14.5877 9.25655H11.6711C11.4777 9.25655 11.2922 9.33156 11.1555 9.4651C11.0187 9.59863 10.9419 9.77974 10.9419 9.96859C10.9419 10.1574 11.0187 10.3385 11.1555 10.4721C11.2922 10.6056 11.4777 10.6806 11.6711 10.6806H12.4002V12.1047H2.19189C1.61173 12.1047 1.05533 12.3298 0.645098 12.7304C0.234863 13.131 0.00439453 13.6743 0.00439453 14.2408C0.00439453 14.8074 0.234863 15.3507 0.645098 15.7513C1.05533 16.1519 1.61173 16.377 2.19189 16.377H2.92106C3.02679 21.3114 7.52575 26.2565 12.5825 26.2565H13.1294V33.288C13.1294 33.4768 13.2062 33.6579 13.343 33.7915C13.4797 33.925 13.6652 34 13.8586 34C14.0519 34 14.2374 33.925 14.3742 33.7915C14.5109 33.6579 14.5877 33.4768 14.5877 33.288V26.2565H20.4211V33.288C20.4211 33.4768 20.4979 33.6579 20.6346 33.7915C20.7714 33.925 20.9568 34 21.1502 34C21.3436 34 21.5291 33.925 21.6658 33.7915C21.8026 33.6579 21.8794 33.4768 21.8794 33.288V26.2565H22.4263C27.4794 26.2565 31.9784 21.3114 32.0877 16.377H32.8169C33.3971 16.377 33.9535 16.1519 34.3637 15.7513C34.7739 15.3507 35.0044 14.8074 35.0044 14.2408C35.0044 13.6743 34.7739 13.131 34.3637 12.7304C33.9535 12.3298 33.3971 12.1047 32.8169 12.1047ZM21.7955 24.9215H13.2132C9.0807 24.9215 5.01012 20.8753 4.44867 16.377H30.7151C30.0388 20.8272 25.8734 24.9215 21.7955 24.9215ZM32.9153 14.8639H2.10075C1.90736 14.8639 1.7219 14.7889 1.58515 14.6553C1.4484 14.5218 1.37158 14.3407 1.37158 14.1518C1.37158 13.963 1.4484 13.7819 1.58515 13.6483C1.7219 13.5148 1.90736 13.4398 2.10075 13.4398H32.908C33.1014 13.4398 33.2869 13.5148 33.4236 13.6483C33.5604 13.7819 33.6372 13.963 33.6372 14.1518C33.6372 14.3407 33.5604 14.5218 33.4236 14.6553C33.2869 14.7889 33.1014 14.8639 32.908 14.8639H32.9153Z" fill="#BD9DEA"/>
</svg>
