<svg width="36" height="29" viewBox="0 0 36 29" fill="none" xmlns="http://www.w3.org/2000/svg">
<path d="M5.22619 5.76451C4.65086 5.21196 4.09836 4.69597 3.56565 4.1624C3.39594 3.99228 3.26124 4.08015 3.09686 4.13428C2.59293 4.30378 2.04082 4.30583 1.53543 4.14009C1.03004 3.97434 0.602936 3.65116 0.32752 3.22607C0.0521049 2.80099 -0.054416 2.30056 0.0262657 1.8108C0.106947 1.32103 0.369792 0.872528 0.769624 0.542365C1.16946 0.212201 1.6813 0.0210026 2.21719 0.00163114C2.75307 -0.0177403 3.27953 0.135925 3.70607 0.436217C4.13261 0.736508 4.43259 1.16467 4.55446 1.64711C4.67632 2.12955 4.61246 2.63614 4.37385 3.0798C4.31373 3.19298 4.24372 3.30335 4.23002 3.32655L5.94611 5.00529C11.946 -0.68329 22.929 -0.679775 29.0438 5.00529L30.7584 3.30406C30.4524 2.85531 30.3327 2.31942 30.4212 1.79545C30.6389 0.593336 31.8809 -0.207367 33.1609 0.0478178C33.4693 0.105295 33.7618 0.220572 34.0201 0.386531C34.2784 0.55249 34.4972 0.765606 34.6628 1.01272C34.8285 1.25983 34.9376 1.5357 34.9833 1.82327C35.029 2.11085 35.0105 2.40404 34.9287 2.68472C34.5931 3.85028 33.2416 4.54624 32.0057 4.14764C31.6655 4.03798 31.4844 4.10617 31.2667 4.32479C30.7865 4.80634 30.2842 5.26891 29.8101 5.72163C30.2812 6.374 30.8132 7.01864 31.2416 7.71741C34.03 12.2601 33.2248 17.7701 29.2363 21.6211C28.3364 22.4966 27.3124 23.2557 26.1922 23.8777C25.9594 24.0063 25.8924 24.1476 25.8955 24.3817C25.9069 25.354 25.9023 26.3262 25.8993 27.2984C25.8993 27.8236 25.7105 28.0014 25.1527 28.0014C20.0544 28.0014 14.9556 28.0014 9.85623 28.0014C9.25198 28.0014 9.0602 27.8229 9.05944 27.2675C9.05944 26.3072 9.04803 25.3462 9.06629 24.3853C9.07162 24.1181 8.98334 23.9733 8.73525 23.8299C5.73836 22.09 3.56032 19.7322 2.6022 16.5483C1.44165 12.677 2.34498 9.16697 5.00854 6.01618C5.08693 5.92409 5.16683 5.83481 5.22619 5.76451ZM17.4649 23.3322C19.8735 23.3322 22.2821 23.3364 24.6946 23.3251C24.9186 23.3225 25.1384 23.2681 25.3338 23.167C26.7189 22.4309 27.9494 21.515 28.9677 20.374C31.301 17.7617 32.2728 14.7881 31.5749 11.4369C30.9106 8.25168 28.9441 5.84536 26.053 4.08367C22.8346 2.12163 19.2685 1.44395 15.4581 1.88191C12.1918 2.25801 9.2984 3.42849 6.94838 5.57682C3.77569 8.47594 2.49946 11.9635 3.59457 16.0218C4.47354 19.2823 6.73605 21.5972 9.83949 23.2527C9.97038 23.323 10.1545 23.328 10.3144 23.328C12.6979 23.3331 15.0814 23.3343 17.4649 23.3315V23.3322ZM10.2778 26.9012H23.8925C24.7045 26.9012 24.7045 26.9012 24.7045 26.1434V24.4717H10.2778V26.9012ZM32.7096 3.23868C33.0226 3.23046 33.3197 3.10957 33.5376 2.90181C33.7554 2.69406 33.8767 2.41588 33.8756 2.12665C33.8745 1.83741 33.7511 1.56003 33.5317 1.35368C33.3123 1.14733 33.0143 1.02836 32.7012 1.02216C32.5424 1.02017 32.3848 1.04762 32.2376 1.1029C32.0905 1.15817 31.9568 1.24014 31.8446 1.34396C31.7323 1.44778 31.6438 1.57134 31.5841 1.70733C31.5245 1.84332 31.495 1.98898 31.4973 2.13569C31.4961 2.28227 31.5268 2.42756 31.5876 2.56298C31.6483 2.69839 31.7379 2.82116 31.8509 2.92402C31.964 3.02688 32.0982 3.10772 32.2457 3.16177C32.3932 3.21582 32.551 3.24198 32.7096 3.23868ZM2.26887 3.23868C2.4275 3.24557 2.58601 3.22294 2.73498 3.17213C2.88395 3.12132 3.02034 3.04337 3.13606 2.94291C3.25177 2.84244 3.34444 2.72152 3.40857 2.58732C3.47269 2.45312 3.50696 2.30838 3.50933 2.1617C3.51596 1.94281 3.45226 1.72701 3.32628 1.54152C3.20029 1.35603 3.01766 1.20916 2.80142 1.11943C2.58518 1.02971 2.34501 1.00115 2.11122 1.03736C1.87743 1.07357 1.66049 1.17292 1.48775 1.32289C1.31502 1.47286 1.19423 1.66673 1.14063 1.88003C1.08703 2.09334 1.10302 2.31653 1.18657 2.52146C1.27012 2.72638 1.4175 2.90386 1.61012 3.0315C1.80273 3.15914 2.03196 3.23123 2.26887 3.23868Z" fill="#BD9DEA"/>
<path d="M26.5852 18.7698C27.0418 18.9455 27.4619 19.1044 27.8789 19.2682C28.2427 19.4088 28.3698 19.6071 28.2457 19.8496C28.0882 20.1575 27.8279 20.135 27.5402 20.0218C27.1087 19.8531 26.6803 19.6759 26.2381 19.5339C26.1671 19.5147 26.0924 19.5099 26.0192 19.52C25.946 19.5301 25.8761 19.5547 25.8143 19.5923C24.0213 20.9877 22.1058 21.4116 19.8273 20.8991C18.7345 22.2236 16.6196 22.5259 15.1973 20.8991C13.1547 21.4011 11.2636 21.0686 9.60836 19.8721C9.10609 19.5093 8.73471 19.4447 8.22027 19.723C7.99196 19.8461 7.73245 19.9171 7.48664 20.0099C7.09852 20.1561 6.86337 20.1013 6.74846 19.8404C6.63354 19.5796 6.769 19.4053 7.16702 19.2513L8.41585 18.7698C7.93431 17.9899 7.62398 17.1299 7.50263 16.239C7.49045 16.1568 7.32683 16.0527 7.21724 16.0317C6.42426 15.8798 5.62595 15.7505 4.82993 15.6063C4.44942 15.536 4.28656 15.3723 4.33603 15.1086C4.38549 14.845 4.60467 14.7494 4.98974 14.8141L7.37021 15.2183C7.50643 14.5491 7.59851 13.8995 7.77659 13.2696C7.995 12.4914 8.41661 11.8011 8.979 11.1775C9.09772 11.0468 9.11979 10.793 9.09392 10.6067C8.93258 9.4313 8.7682 8.25099 8.99346 7.07419C9.10381 6.49422 9.36179 5.93816 9.54824 5.37085C9.62891 5.12691 9.79253 5.08965 10.0429 5.1487C11.4736 5.47629 12.6646 6.19545 13.7262 7.10512C14.1501 7.46856 14.5086 7.9009 14.8746 8.31847C14.9941 8.45485 15.0763 8.49844 15.2757 8.45907C16.7459 8.18281 18.2612 8.18281 19.7314 8.45907C19.9559 8.50195 20.0358 8.43447 20.1546 8.28825C21.3661 6.78174 22.911 5.70055 24.8896 5.16909C25.2077 5.08403 25.3546 5.15081 25.4984 5.42708C26.1453 6.65661 26.1696 7.95784 26.0738 9.27665C26.0587 9.58101 26.019 9.88391 25.955 10.1828C25.8287 10.7136 25.9314 11.1276 26.3279 11.5803C27.1476 12.5167 27.4489 13.6605 27.5456 14.8499C27.5547 14.9645 27.5616 15.0791 27.5714 15.2295C28.404 15.0889 29.2099 14.9484 30.0166 14.8134C30.3971 14.7494 30.6323 14.852 30.6657 15.1107C30.7084 15.4426 30.4869 15.5585 30.1726 15.6106C29.3743 15.742 28.5745 15.8777 27.7853 16.0366C27.7163 16.058 27.6538 16.0944 27.6031 16.1427C27.5524 16.191 27.5149 16.2499 27.4938 16.3143C27.3538 17.167 27.092 17.9782 26.5852 18.7698ZM26.3744 16.2777C25.9855 16.3417 25.6628 16.3951 25.3401 16.4471C25.0525 16.4942 24.8158 16.419 24.758 16.1364C24.7001 15.8538 24.882 15.702 25.175 15.6549C25.313 15.6324 25.45 15.6089 25.5859 15.5846C26.4992 15.4208 26.5167 15.4186 26.4063 14.568C26.2541 13.387 25.8211 12.3185 24.812 11.5121C24.7268 11.4418 24.7032 11.2696 24.7146 11.1494C24.8089 10.1125 24.9528 9.0777 25.0083 8.03939C25.0498 7.43208 24.9307 6.82457 24.6613 6.26926C22.8592 7.04255 21.3608 8.06048 20.5328 9.74976C18.5757 9.09816 16.434 9.09667 14.4758 9.74554C13.6205 8.0422 12.1311 7.02216 10.3222 6.26997C10.0211 7.08713 9.91446 7.95466 10.0094 8.81338C10.0855 9.60564 10.2103 10.3937 10.3001 11.1846C10.3115 11.2921 10.2781 11.4496 10.1989 11.5143C9.00031 12.483 8.63806 13.7694 8.53837 15.1628C8.52391 15.3666 8.59316 15.4524 8.82299 15.4798C9.18644 15.5265 9.54673 15.5922 9.90212 15.6766C10.2111 15.7469 10.3747 16.0331 10.1943 16.2313C10.052 16.3628 9.85912 16.4369 9.65783 16.4373C9.32755 16.431 8.99879 16.3452 8.63122 16.2861C8.77733 17.0672 8.98509 17.7561 9.47899 18.367L10.444 18.0021C10.7217 17.896 10.9592 17.9459 11.0756 18.2074C11.192 18.4689 11.0383 18.6538 10.7712 18.76C10.5802 18.8352 10.3907 18.9118 10.1297 19.0151C11.6243 19.9853 13.16 20.3972 14.8837 19.9002C15.7817 19.6415 16.3906 19.0693 16.7863 18.2833C16.8332 18.2026 16.855 18.1115 16.8492 18.02C16.8434 17.9285 16.8103 17.8404 16.7536 17.7652C16.217 16.9308 15.695 16.0872 15.1706 15.2457C14.8008 14.6524 15.0184 14.2925 15.7498 14.2904C16.9294 14.2866 18.1087 14.2866 19.2878 14.2904C19.978 14.2904 20.2078 14.6524 19.8692 15.2C19.3365 16.0633 18.7862 16.9195 18.2665 17.7898C18.1886 17.938 18.1777 18.1087 18.236 18.2643C18.4027 18.6523 18.6609 19.0011 18.9918 19.2853C19.3228 19.5695 19.7182 19.782 20.1492 19.9072C21.1637 20.2208 22.1713 20.1519 23.1712 19.8503C23.775 19.678 24.3358 19.3968 24.8211 19.0229C24.7968 18.9989 24.7698 18.9775 24.7405 18.9589C24.5883 18.897 24.436 18.8373 24.2892 18.7768C23.9353 18.6362 23.8014 18.4253 23.9307 18.1905C24.0829 17.9093 24.331 17.9093 24.6103 18.0183C24.9094 18.1371 25.213 18.2482 25.5296 18.3698C26.022 17.7469 26.2351 17.0608 26.3744 16.2798V16.2777ZM18.682 20.5097L17.5131 19.5143L16.3297 20.5132C16.8624 21.1691 18.0922 21.174 18.682 20.5118V20.5097ZM16.4933 15.3294L17.5039 16.9462L18.513 15.3294H16.4933Z" fill="#BD9DEA"/>
<path d="M13.8793 14.9842C13.8793 15.3455 13.7271 15.5248 13.4303 15.5881C13.1472 15.6485 12.877 15.4714 12.7933 15.1621C12.5787 14.3684 12.374 13.5719 12.1685 12.7761C12.0996 12.5517 12.0487 12.3228 12.0163 12.0914C11.9912 11.825 12.1464 11.6415 12.4379 11.5902C12.7294 11.5389 12.9767 11.6345 13.0467 11.8896C13.3481 12.9406 13.6175 13.9986 13.8793 14.9842Z" fill="#BD9DEA"/>
<path d="M21.3342 11.5775C21.4629 11.5688 21.5905 11.6041 21.6928 11.6769C21.795 11.7497 21.8646 11.8547 21.8882 11.9719C22.1561 12.9561 22.4209 13.9466 22.6682 14.9378C22.7489 15.2598 22.5625 15.5241 22.255 15.5881C21.9742 15.6464 21.6911 15.4819 21.6081 15.1768C21.3403 14.1926 21.0807 13.2042 20.8296 12.2116C20.7413 11.8629 20.9773 11.5867 21.3342 11.5775Z" fill="#BD9DEA"/>
</svg>
