<svg width="36" height="14" viewBox="0 0 36 14" fill="none" xmlns="http://www.w3.org/2000/svg">
<path d="M0.00439453 2.06975C0.165354 1.45674 0.587444 1.15109 1.1782 0.967011C4.06947 0.0654675 7.03866 -0.116896 10.0301 0.0646113C12.233 0.197317 14.4248 0.508962 16.6269 0.655366C17.6286 0.721291 18.65 0.630538 19.6534 0.522661C22.7005 0.197317 25.7442 -0.134876 28.8144 0.0757414C30.5807 0.196461 32.317 0.473859 34.0028 1.02866C34.6706 1.24955 34.9882 1.66992 35.0002 2.3677C35.0062 2.72044 35.0054 3.07318 35.0002 3.42678C34.9917 4.00298 34.7519 4.45418 34.1988 4.65623C33.7297 4.82747 33.5875 5.12113 33.5045 5.61C33.3221 6.68193 33.0267 7.73501 32.7553 8.78981C32.6997 9.00899 32.716 9.13998 32.9017 9.27782C33.1563 9.47054 33.399 9.67839 33.6286 9.90026C34.323 10.5561 34.1826 11.5338 33.3273 11.9645C33.0036 12.1271 32.6646 12.2641 32.3273 12.3977C31.8735 12.5758 31.4172 12.5501 30.9574 12.3977C30.8469 12.3617 30.674 12.3566 30.591 12.4182C29.9101 12.9231 29.1024 13.2287 28.2579 13.301C26.7168 13.4611 25.1663 13.5261 23.6278 13.2616C21.7373 12.9379 20.4163 11.8275 19.5284 10.1725C18.7253 8.67594 18.1517 7.1023 18.055 5.38569C18.043 5.16822 17.9437 5.07747 17.7407 5.06891C17.6389 5.06891 17.5361 5.0612 17.4342 5.05606C17.1046 5.03723 16.9685 5.15624 16.9359 5.52182C16.7649 7.59872 16.0101 9.58494 14.7587 11.2513C14.0108 12.2765 12.897 12.9746 11.6483 13.2008C9.7645 13.5648 7.82628 13.5406 5.95219 13.1297C5.43849 13.0158 4.97187 12.6759 4.4753 12.4576C4.344 12.393 4.19504 12.3734 4.0515 12.402C3.58917 12.5458 3.13368 12.5732 2.68163 12.3968C2.32027 12.2603 1.96671 12.1039 1.62255 11.9285C0.828883 11.5004 0.706451 10.5535 1.35714 9.92337C1.59401 9.693 1.84508 9.47768 2.10885 9.27868C2.29293 9.13998 2.31776 9.0107 2.25526 8.79066C2.00783 7.9285 1.77923 7.06035 1.56176 6.19049C1.4957 5.93648 1.46459 5.67465 1.4693 5.41223C1.47957 5.05264 1.29806 4.85486 0.995836 4.74784C0.482136 4.5689 0.150799 4.23414 0.0078192 3.71017L0.00439453 2.06975ZM8.46504 1.09544C6.28267 1.08088 4.12084 1.24612 2.01211 1.85657C1.08916 2.12369 1.11741 2.13054 1.07974 3.09287C1.06519 3.50041 1.20046 3.69904 1.57118 3.84887C2.13796 4.07747 2.47957 4.50983 2.53266 5.14511C2.69037 6.96318 3.21925 8.72959 4.0866 10.3352C4.66879 11.4311 5.5652 12.146 6.83318 12.2093C8.14825 12.2753 9.47017 12.295 10.7852 12.2419C11.3986 12.2235 11.9995 12.064 12.5412 11.7756C13.0829 11.4872 13.5508 11.0778 13.9085 10.5792C15.0356 9.07736 15.7134 7.28654 15.8632 5.4148C15.9437 4.47301 16.3863 4.02181 17.3375 3.98157C17.4741 3.97473 17.611 3.97473 17.7476 3.98157C18.6038 4.02781 19.0764 4.46188 19.1312 5.31634C19.2313 6.87199 19.7545 8.29323 20.4771 9.64854C21.239 11.0775 22.3786 12.0304 24.0267 12.2333C25.4422 12.3979 26.8725 12.3872 28.2853 12.2016C29.3084 12.0749 30.1218 11.6023 30.6697 10.7282C31.7254 9.05094 32.2639 7.19306 32.4677 5.23586C32.5259 4.66394 32.7245 4.15024 33.2382 3.96445C33.9086 3.72301 33.9959 3.28979 33.9232 2.70589C33.9112 2.61524 33.9112 2.52341 33.9232 2.43277C33.9557 2.19133 33.8315 2.09886 33.6149 2.02951C32.1584 1.57417 30.6541 1.28889 29.132 1.17934C26.1534 0.939614 23.1911 1.17506 20.2416 1.5629C18.4224 1.79379 16.5813 1.79379 14.7621 1.5629C12.6757 1.31804 8.4676 1.06376 8.46504 1.09544ZM2.74413 10.1477C2.52067 10.3395 2.30663 10.5073 2.1157 10.6965C2.06776 10.7444 2.06005 10.9277 2.08659 10.9405C2.51468 11.1494 2.92307 11.4414 3.47187 11.4371L2.74413 10.1477ZM31.5285 11.4371C32.0747 11.4448 32.4702 11.1511 32.8983 10.9559C32.9334 10.9396 32.948 10.7556 32.9069 10.7145C32.7083 10.5167 32.4882 10.3412 32.2639 10.1468L31.5285 11.4371Z" fill="#BD9DEA"/>
<path d="M9.01394 11.9747C8.30076 11.908 7.57986 11.8891 6.87353 11.7641C5.63808 11.5458 4.86068 10.711 4.31102 9.65025C3.61752 8.3112 3.11239 6.90366 2.89749 5.40109C2.63464 3.54578 3.58242 2.15451 5.4052 1.72728C6.95829 1.36255 8.52935 1.48242 10.0953 1.56204C11.1646 1.61598 12.228 1.75211 13.2366 2.14252C14.9129 2.7915 15.6432 3.91307 15.4326 5.69989C15.2562 7.3276 14.6304 8.87414 13.6253 10.1665C12.7691 11.2641 11.609 11.8009 10.2417 11.9097C9.83501 11.9413 9.42405 11.9097 9.01394 11.9097V11.9747ZM9.08843 10.8788C9.42233 10.8626 9.83244 10.8583 10.24 10.8198C11.2451 10.7256 12.1073 10.3369 12.752 9.53552C13.6638 8.40453 14.1218 7.07747 14.3496 5.66907C14.5011 4.72729 14.2973 3.88225 13.3727 3.39252C13.0208 3.20428 12.647 3.06048 12.2597 2.96444C10.6073 2.56632 8.92062 2.51752 7.23483 2.58858C6.63295 2.61398 6.03518 2.70004 5.45058 2.84543C4.65092 3.04321 4.0927 3.54064 3.98653 4.40623C3.94253 4.73459 3.94542 5.06754 3.99509 5.3951C4.22965 6.78939 4.70445 8.13239 5.39835 9.36429C5.86068 10.1931 6.53705 10.711 7.51565 10.771C8.01223 10.8018 8.51137 10.8395 9.08843 10.8788Z" fill="#BD9DEA"/>
<path d="M25.9556 11.902C25.1217 11.9662 24.2955 11.9285 23.495 11.6614C22.523 11.3423 21.6897 10.6999 21.1337 9.84117C20.2159 8.4636 19.6302 6.95846 19.5515 5.29236C19.483 3.83687 20.227 2.75639 21.5789 2.21529C22.6825 1.77351 23.8426 1.59628 25.0138 1.56118C26.3075 1.5218 27.6071 1.53378 28.8982 1.61512C29.4599 1.65108 30.0404 1.848 30.5549 2.09201C31.6106 2.59286 32.102 3.51324 32.12 4.65537C32.1294 5.21701 32.0909 5.80863 31.9231 6.33945C31.5792 7.46741 31.1655 8.57286 30.6842 9.64939C29.9993 11.14 28.7638 11.8754 27.1166 11.9011C26.7296 11.902 26.3426 11.902 25.9556 11.902ZM26.5104 2.62797C26.0215 2.62797 25.5301 2.60057 25.0429 2.6331C24.054 2.70074 23.0737 2.80434 22.132 3.15708C21.0189 3.57061 20.5395 4.25383 20.6448 5.43106C20.7686 6.75149 21.2168 8.02086 21.9496 9.12627C22.5352 10.027 23.3383 10.6674 24.4325 10.753C25.4145 10.83 26.4068 10.8069 27.394 10.7855C28.501 10.7616 29.2321 10.1391 29.7202 9.19477C30.3392 7.99613 30.8066 6.73842 31.0181 5.40195C31.2553 3.90109 30.6654 2.82232 29.1628 2.75639C28.4976 2.72386 26.6996 2.63824 26.5104 2.6254V2.62797Z" fill="#BD9DEA"/>
</svg>
