<svg width="35" height="34" viewBox="0 0 35 34" fill="none" xmlns="http://www.w3.org/2000/svg">
<rect width="35" height="34" fill="white"/>
<path d="M17.0143 0C18.766 0 20.5178 0 22.2695 0C23.2267 0 23.582 0.583601 23.1476 1.43818C22.3621 2.97739 21.5677 4.50977 20.7949 6.05785C20.6927 6.26196 20.6537 6.49242 20.6828 6.71926C21.4042 10.9103 22.1432 15.0985 22.8747 19.2875C23.2456 21.411 23.6178 23.5338 23.9683 25.6607C24.0967 26.4423 23.8765 27.1678 23.3847 27.7815C21.9959 29.5138 20.6153 31.2517 19.1866 32.952C18.0208 34.341 15.9862 34.3526 14.819 32.967C13.3728 31.2524 11.9766 29.4947 10.5763 27.7419C9.92987 26.933 9.92785 25.9952 10.1035 25.0164C11.1613 19.0309 12.1975 13.0413 13.262 7.05714C13.3564 6.61341 13.286 6.15009 13.0641 5.75547C12.2886 4.3166 11.5585 2.85384 10.812 1.3986C10.4108 0.607491 10.7729 0.00341287 11.6544 0C13.4412 0 15.2279 0 17.0143 0ZM19.0299 7.1329H15.4668C14.946 7.1329 14.948 7.1329 14.8588 7.63733C13.8123 13.6226 12.7637 19.609 11.7131 25.5965C11.626 26.0928 11.7199 26.5119 12.0475 26.9098C13.3532 28.4968 14.6386 30.1002 15.9362 31.694C16.5948 32.5035 17.3959 32.5008 18.0539 31.694C19.3204 30.1357 20.5707 28.5637 21.8548 27.0197C22.2526 26.5419 22.356 26.0641 22.2472 25.4552C21.5427 21.5195 20.8632 17.5852 20.1742 13.6515C19.7959 11.4959 19.417 9.33898 19.0299 7.13359V7.1329ZM21.105 1.72964H12.879C13.4937 2.94121 14.0861 4.11865 14.6913 5.28313C14.7232 5.32561 14.7639 5.36052 14.8106 5.38541C14.8573 5.41029 14.9088 5.42454 14.9615 5.42715C16.3152 5.43625 17.6686 5.43625 19.0218 5.42715C19.0748 5.42408 19.1265 5.40929 19.1731 5.38381C19.2198 5.35833 19.2604 5.3228 19.292 5.27971C19.9013 4.11319 20.4923 2.93985 21.105 1.73033V1.72964Z" fill="#BD9DEA"/>
</svg>
